<?xml version="1.0" encoding="iso-8859-1"?>
<!-- Uploaded to: SVG Repo, www.svgrepo.com, Generator: SVG Repo Mixer Tools -->
<svg fill="#000000" height="800px" width="800px" version="1.1" id="Capa_1" xmlns="http://www.w3.org/2000/svg" xmlns:xlink="http://www.w3.org/1999/xlink" 
	 viewBox="0 0 56 56" xml:space="preserve">
<g>
	<path d="M54,7H28V1c0-0.552-0.447-1-1-1H17c-0.553,0-1,0.448-1,1v3.934c-0.003,0.044-0.003,0.086,0,0.13V7H2C1.447,7,1,7.448,1,8v8
		c0,0.552,0.447,1,1,1h5v27H4c-0.553,0-1,0.448-1,1v4H2c-0.553,0-1,0.448-1,1v5c0,0.552,0.447,1,1,1h12c0.553,0,1-0.448,1-1v-5
		c0-0.552-0.447-1-1-1h-1v-4c0-0.552-0.447-1-1-1H9V17h7v6.948c-0.003,0.044-0.003,0.086,0,0.13v9.881
		c-0.003,0.044-0.003,0.086,0,0.13v9.87c-0.002,0.024-0.012,0.047-0.011,0.072c0,0.024,0.01,0.047,0.011,0.072v9.87
		c-0.003,0.044-0.003,0.086,0,0.13V55c0,0.552,0.447,1,1,1h10c0.553,0,1-0.448,1-1V17h18v12.042h0.008
		C46.031,29.573,46.462,30,47,30c1.654,0,3,1.346,3,3s-1.346,3-3,3s-3-1.346-3-3c0-0.552-0.447-1-1-1s-1,0.448-1,1
		c0,2.757,2.243,5,5,5s5-2.243,5-5c0-2.414-1.721-4.434-4-4.899V17h6c0.553,0,1-0.448,1-1V8C55,7.448,54.553,7,54,7z M13,54H3v-3h1
		h8h1V54z M11,46v3H5v-3h2h2H11z M18,8V7.426l2.58,2.58L18,12.586V8z M26,8v4.598l-2.592-2.592L26,7.414V8z M25.08,14.506
		l-3.086,3.086l-3.086-3.086l3.086-3.086L25.08,14.506z M18,16.426l2.58,2.58L18,21.586V16.426z M21.994,20.42l3.592,3.592
		l-3.593,3.593l-3.592-3.592L21.994,20.42z M20.579,29.018L18,31.598V26.44L20.579,29.018z M21.993,30.433l3.593,3.592l-3.592,3.592
		l-3.593-3.592L21.993,30.433z M20.58,39.031L18,41.611v-5.16L20.58,39.031z M21.994,40.445l3.586,3.586l-3.586,3.586l-3.586-3.586
		L21.994,40.445z M20.58,49.031L18,51.611v-5.16L20.58,49.031z M21.994,50.445L25.549,54h-7.11L21.994,50.445z M23.408,49.031
		L26,46.439v5.184L23.408,49.031z M23.408,39.031L26,36.439v5.184L23.408,39.031z M23.407,29.018L26,26.426v5.185L23.407,29.018z
		 M23.408,19.006L26,16.414v5.184L23.408,19.006z M26,2v2.586l-4.006,4.006L18,4.598V2H26z M3,9h13v4.934
		c-0.003,0.044-0.003,0.086,0,0.13v0.883c-0.001,0.018-0.01,0.035-0.01,0.052H3V9z M53,15h-5h-2H28V9h25V15z"/>
</g>
</svg>